# xmcd CD database file
#
# Track frame offsets:
#	150
#	24194
#	43228
#	68473
#	95794
#	112677
#	141802
#	161581
#	185763
#	218746
#
# Disc length: 3170 seconds
#
# Revision: 0
# Processed by: cddbd v1.5.2PL0 Copyright (c) Steve Scherf et al.
# Submitted via: CDex 1.51
#
DISCID=830c600a
DTITLE=Lionel Loueke - Gilfema and 2
DYEAR=2008
DGENRE=Jazz
TTITLE0=Twins
TTITLE1=Question of Perspective
TTITLE2=Your World
TTITLE3=Salomé
TTITLE4=LonLon Gnin
TTITLE5=Morning Day
TTITLE6=Festa
TTITLE7=Cove
TTITLE8=One's Mind's Eye
TTITLE9=Master of the Obvious
EXTD=YEAR: 2008
EXTT0=
EXTT1=
EXTT2=
EXTT3=
EXTT4=
EXTT5=
EXTT6=
EXTT7=
EXTT8=
EXTT9=
PLAYORDER=
